<svg height="480pt" viewBox="0 -56 480 480" width="480pt" xmlns="http://www.w3.org/2000/svg"><path d="m432 64v272c0 17.671875-14.328125 32-32 32h-320c-17.671875 0-32-14.328125-32-32v-272zm0 0" fill="#5aaae7"/><path d="m480 112v120c-.027344 8.824219-7.175781 15.972656-16 16h-128l-40 40v-40h-24c-8.824219-.027344-15.972656-7.175781-16-16v-120c.027344-8.824219 7.175781-15.972656 16-16h192c8.824219.027344 15.972656 7.175781 16 16zm0 0" fill="#ffd422"/><path d="m408.160156 137.761719c9.359375 9.367187 9.359375 24.546875 0 33.917969l-40.160156 40.160156-40.160156-40.160156c-6.421875-5.984376-9.0625-14.992188-6.890625-23.496094s8.808593-15.144532 17.3125-17.316406c8.503906-2.171876 17.515625.472656 23.5 6.894531l6.238281 6.238281 6.238281-6.238281c4.496094-4.507813 10.597657-7.039063 16.960938-7.039063s12.46875 2.53125 16.960937 7.039063zm0 0" fill="#ff5023"/><path d="m208 136h-192c-8.824219.027344-15.9726562 7.175781-16 16v128c.0273438 8.824219 7.175781 15.972656 16 16h128l40 40v-40h24c8.824219-.027344 15.972656-7.175781 16-16v-128c-.027344-8.824219-7.175781-15.972656-16-16zm0 0" fill="#00ccb3"/><path d="m432 32v32h-384v-32c0-17.671875 14.328125-32 32-32h320c17.671875 0 32 14.328125 32 32zm0 0" fill="#ff6243"/><path d="m88 24h16v16h-16zm0 0" fill="#ffd422"/><path d="m120 24h16v16h-16zm0 0" fill="#00b39d"/><path d="m152 24h16v16h-16zm0 0" fill="#ed1c24"/><g fill="#009986"><path d="m40 176h32v16h-32zm0 0"/><path d="m88 176h96v16h-96zm0 0"/><path d="m40 208h144v16h-144zm0 0"/><path d="m40 240h144v16h-144zm0 0"/></g></svg>